<?xml version="1.0" encoding="UTF-8" standalone="no"?>
<svg
   xmlns:dc="http://purl.org/dc/elements/1.1/"
   xmlns:cc="http://creativecommons.org/ns#"
   xmlns:rdf="http://www.w3.org/1999/02/22-rdf-syntax-ns#"
   xmlns:svg="http://www.w3.org/2000/svg"
   xmlns="http://www.w3.org/2000/svg"
   xmlns:sodipodi="http://sodipodi.sourceforge.net/DTD/sodipodi-0.dtd"
   xmlns:inkscape="http://www.inkscape.org/namespaces/inkscape"
   viewBox="0 0 21.867306 19.744444"
   width="21.867306"
   height="19.744444"
   version="1.1"
   id="svg30"
   sodipodi:docname="jusbrasil.svg"
   inkscape:version="0.92.3 (d244b95, 2018-08-02)">
  <metadata
     id="metadata36">
    <rdf:RDF>
      <cc:Work
         rdf:about="">
        <dc:format>image/svg+xml</dc:format>
        <dc:type
           rdf:resource="http://purl.org/dc/dcmitype/StillImage" />
        <dc:title></dc:title>
      </cc:Work>
    </rdf:RDF>
  </metadata>
  <defs
     id="defs34" />
  <sodipodi:namedview
     pagecolor="#ffffff"
     bordercolor="#666666"
     borderopacity="1"
     objecttolerance="10"
     gridtolerance="10"
     guidetolerance="10"
     inkscape:pageopacity="0"
     inkscape:pageshadow="2"
     inkscape:window-width="1920"
     inkscape:window-height="1025"
     id="namedview32"
     showgrid="false"
     fit-margin-top="0"
     fit-margin-left="0"
     fit-margin-right="0"
     fit-margin-bottom="0"
     inkscape:zoom="4.2416667"
     inkscape:cx="59.744444"
     inkscape:cy="9.8444444"
     inkscape:window-x="0"
     inkscape:window-y="27"
     inkscape:window-maximized="1"
     inkscape:current-layer="svg30" />
  <path
     style="fill:#f9c823"
     inkscape:connector-curvature="0"
     d="m 1.6444444,19.3 v 0 C 0.04444444,18.4 -0.45555556,16.4 0.44444444,14.9 L 8.0444444,1.7 c 0.9,-1.6 2.8999996,-2.1 4.4999996,-1.2 1.6,0.9 2.1,2.9 1.2,4.4 L 6.1444444,18.1 c -0.9,1.6 -2.9,2.1 -4.5,1.2"
     id="path20" />
  <path
     style="fill:#3c81b5"
     inkscape:connector-curvature="0"
     d="m 20.244444,19.3 v 0 c -1.6,0.9 -3.6,0.4 -4.5,-1.2 L 8.0444444,4.9 c -0.9,-1.5 -0.3,-3.5 1.2,-4.4 1.5999996,-0.9 3.5999996,-0.4 4.4999996,1.2 l 7.7,13.2 c 0.9,1.5 0.3,3.5 -1.2,4.4"
     id="path22" />
  <path
     style="fill:#72ac42"
     inkscape:connector-curvature="0"
     d="m 13.644444,1.5 c 0,-0.1 -0.1,-0.1 -0.1,-0.1 0,-0.1 -0.1,-0.1 -0.1,-0.2 0,0 -0.1,-0.1 -0.1,-0.1 0,0 -0.1,-0.1 -0.1,-0.1 0,-0.1 -0.1,-0.1 -0.1,-0.1 -0.1,-0.1 -0.1,-0.1 -0.1,-0.1 -0.1,-0.1 -0.1,-0.1 -0.2,-0.1 0,-0.1 0,-0.1 -0.1,-0.1 0,0 -0.1,-0.1 -0.2,-0.1 0,0 0,-0.1 -0.1,-0.1 0,0 -0.1,0 -0.1,-0.1 -0.1,0 -0.1,0 -0.2,0 0,0 -0.1,-0.1 -0.1,-0.1 -0.1,0 -0.1,0 -0.2,0 0,-0.1 -0.1,-0.1 -0.1,-0.1 -0.1,0 -0.1,0 -0.2,0 -0.1,0 -0.1,0 -0.1,0 -0.1,0 -0.2,-0.1 -0.2,-0.1 -0.1,0 -0.1,0 -0.2,0 0,0 -0.1,0 -0.1,0 -0.1,0 -0.1,0 -0.2,0 0,0 -0.1,0 -0.1,0 -0.1,0 -0.1,0.1 -0.2,0.1 0,0 -0.1,0 -0.1,0 -0.1,0 -0.2,0 -0.2,0 -0.1,0 -0.1,0 -0.1,0.1 -0.1,0 -0.1999996,0 -0.1999996,0 -0.1,0 -0.1,0.1 -0.2,0.1 0,0 -0.1,0 -0.1,0 -0.1,0.1 -0.1,0.1 -0.2,0.1 0,0 -0.1,0.1 -0.1,0.1 -0.1,0 -0.1,0.1 -0.2,0.1 0,0 0,0 -0.1,0.1 0,0 -0.1,0 -0.1,0.1 -0.1,0 -0.1,0 -0.1,0.1 -0.1,0 -0.1,0 -0.1,0.1 -0.1,0 -0.1,0.1 -0.2,0.1 0,0 0,0.1 0,0.1 -0.1,0.1 -0.1,0.1 -0.2,0.2 0,0 0,0 0,0.1 -0.1,0 -0.1,0.1 -0.1,0.1 -0.6,1 -0.7,2.3 -0.1,3.3 l 2.8999996,4.9 2.8,-4.9 c 0.6,-1 0.6,-2.3 0,-3.3 0,0 -0.1,-0.1 -0.1,-0.1"
     id="path24" />
</svg>
