<svg
    xmlns="http://www.w3.org/2000/svg" width="240" height="180">
    <g fill="none" fill-rule="evenodd">
        <rect width="84" height="84" x="77" y="3" stroke="#48ACEE" stroke-width="6" rx="21"/>
        <g fill="#48ACEE">
            <path d="M35.907 178.223c-4.293.915-9.334 1.371-15.124 1.371-2.863 0-5.091-.05-6.685-.147-1.593-.098-3.414-.426-5.462-.98-2.051-.556-3.611-1.354-4.684-2.4-1.072-1.042-2-2.56-2.779-4.552C.391 169.527 0 167.059 0 164.119v-17.433c0-2.612.244-4.864.732-6.755.487-1.894 1.25-3.426 2.291-4.603 1.04-1.177 2.115-2.122 3.221-2.84 1.106-.717 2.62-1.223 4.54-1.518 1.915-.292 3.608-.49 5.072-.587 1.463-.097 3.43-.148 5.902-.148 4.49 0 8.977.49 13.467 1.469v6.464c-5.075-1.305-9.922-1.958-14.539-1.958-4.88 0-8.051.59-9.514 1.763-1.463 1.173-2.195 3.654-2.195 7.442v19.395c0 3.46.828 5.76 2.488 6.9 1.658 1.146 5.055 1.716 10.197 1.716 4.617 0 9.367-.624 14.245-1.861v6.658m40.476-47.008v35.737c0 .171 0 .312-.026.48-.07 1.491-.528 2.668-1.414 3.533a.765.765 0 0 1-.213.214 5.212 5.212 0 0 1-1.173.772c-1.894.911-5.268 1.367-10.13 1.367-.838 0-1.63-.02-2.371-.094-1.196-.093-2.249-.264-3.16-.53-.07-.023-.144-.046-.214-.07-1.34-.432-2.299-1.032-2.897-1.803-.621-.815-1.028-1.61-1.223-2.377-.19-.795-.287-1.78-.287-2.957v-34.272h-8.783v34.775c0 4.566 1.173 7.979 3.518 10.239 1.844 1.776 4.981 2.856 9.338 3.218 1.099.097 2.271.144 3.54.144 9.412 0 14.586-2.256 15.495-6.752v5.77h1.22c1.747-.53 3.113-1.301 4.119-2.26 2.011-1.944 3.16-4.734 3.448-8.361v-36.773h-8.787m55.53 33.203v-18.613c0-4.047-.942-6.612-2.83-7.684-1.887-1.08-5.234-1.616-10.052-1.616-4.616 0-7.837.62-9.661 1.857-1.817 1.24-2.73 3.721-2.73 7.443v18.613c0 3.982.893 6.543 2.683 7.687 1.79 1.14 5.058 1.71 9.808 1.71 4.811 0 8.145-.57 10.003-1.71 1.85-1.144 2.78-3.705 2.78-7.687zm8.977-20.766v19.492c0 2.873-.425 5.353-1.266 7.439-.849 2.092-1.905 3.708-3.174 4.847-1.27 1.147-2.947 2.045-5.024 2.696-2.085.65-4.036 1.06-5.853 1.223-1.825.165-4.036.245-6.635.245-3.388 0-6.147-.16-8.299-.49-2.144-.328-4.29-1.012-6.437-2.058-2.148-1.039-3.742-2.722-4.781-5.042-1.042-2.317-1.564-5.27-1.564-8.86v-53.08h8.784v14.197c0 1.24-.017 3.118-.05 5.632a451.09 451.09 0 0 0-.048 5.633c.261-1.502 1.61-2.76 4.05-3.772 2.438-1.009 6.033-1.519 10.783-1.519 13.01 0 19.514 4.473 19.514 13.417zm43.714 21.252v-19.197c0-4.375-.879-7.083-2.633-8.13-1.757-1.039-5.141-1.562-10.15-1.562-5.01 0-8.39.523-10.148 1.562-1.757 1.047-2.636 3.755-2.636 8.13v19.197c0 2.092.23 3.754.685 4.995.454 1.24 1.303 2.139 2.535 2.695a12.16 12.16 0 0 0 3.806 1.026c1.303.134 3.22.195 5.759.195 2.536 0 4.456-.06 5.756-.195a12.19 12.19 0 0 0 3.805-1.026c1.236-.556 2.085-1.455 2.539-2.695.455-1.24.682-2.903.682-4.995zm8.98-17.725v16.454c0 2.94-.361 5.421-1.076 7.443-.715 2.025-1.627 3.59-2.733 4.7-1.106 1.11-2.682 1.954-4.734 2.544-2.048.59-3.999.946-5.853 1.08-1.854.127-4.31.194-7.366.194-3.902 0-6.945-.134-9.127-.392-2.178-.262-4.356-.895-6.535-1.908-2.181-1.012-3.741-2.628-4.683-4.847-.942-2.22-1.417-5.156-1.417-8.814V147.18c0-3.138.375-5.78 1.123-7.932.748-2.156 1.66-3.822 2.732-4.995 1.076-1.177 2.653-2.072 4.734-2.695 2.082-.618 4.016-.993 5.803-1.127 1.79-.128 4.246-.195 7.37-.195 3.12 0 5.576.067 7.366.195 1.788.134 3.725.51 5.807 1.127 2.081.623 3.658 1.518 4.733 2.695 1.07 1.173 1.985 2.84 2.733 4.995.745 2.152 1.123 4.794 1.123 7.932zm46.152 14.791v4.11c0 5.093-1.774 8.62-5.319 10.577-3.544 1.958-8.635 2.937-15.27 2.937-5.075 0-10.477-.392-16.196-1.173v-6.759c7.804 1.24 13.27 1.861 16.393 1.861 3.902 0 6.829-.376 8.783-1.126 1.951-.748 2.926-2.3 2.926-4.65v-4.801c0-2.025-.68-3.46-2.05-4.308-1.367-.848-3.579-1.278-6.636-1.278h-5.365c-4.944 0-8.686-1.025-11.221-3.084-2.536-2.058-3.809-4.878-3.809-8.471v-4.406c0-7.442 7.026-11.164 21.077-11.164 1.563 0 6.34.262 14.345.785v6.363c-5.595-.912-10.506-1.368-14.732-1.368-4.684 0-7.858.456-9.515 1.368-1.657.919-2.489 2.447-2.489 4.606V146c0 3.202 2.893 4.8 8.686 4.8h5.462c9.952 0 14.93 3.725 14.93 11.171"/>
            <path d="M85.243 131.335v34.775c0 .65-.027 1.274-.073 1.878-.288 3.627-1.437 6.417-3.448 8.361-1.006.959-2.372 1.73-4.12 2.26-2.298.744-5.22 1.106-8.762 1.106-4.814 0-8.62.117-11.492-.268-2.73-.362-4.597-1.2-5.58-3.024l4.404-4.352c.434.215.935.382 1.51.554l.213.07a22.59 22.59 0 0 0 3.16.53c1.511.167 3.258.24 5.246.24 2.225 0 4.069-.217 5.532-.65 1.316-.382 2.298-.911 2.897-1.636a.765.765 0 0 0 .213-.214c.625-.818 1.033-1.636 1.226-2.404.067-.335.14-.72.188-1.13.073-.55.093-1.153.093-1.8v-34.296h8.793"/>
        </g>
    </g>
    <head
        xmlns=""/>
</svg>